<?xml version="1.0" encoding="utf-8"?>
<!-- Generator: Adobe Illustrator 21.0.0, SVG Export Plug-In . SVG Version: 6.00 Build 0)  -->
<svg version="1.1" id="Слой_1" xmlns="http://www.w3.org/2000/svg" xmlns:xlink="http://www.w3.org/1999/xlink" x="0px" y="0px"
	 viewBox="0 0 30 30" style="enable-background:new 0 0 30 30;" xml:space="preserve">
<style type="text/css">
	.st0{fill:#05746E;}
</style>
<g transform="translate(0.000000,151.000000) scale(0.100000,-0.100000)">
	<path class="st0" d="M120.9,1485.2c-21.3-5.4-40.3-16.3-56.6-32.8c-24.6-24.6-36.2-51.9-36.4-86.4c0-23.4,3.8-39.7,13.7-58.8
		c18.9-36,57-61.2,97.7-65.2c11.1-1,15.5-0.8,17.5,1.2c5.2,5.2,0.8,7.7-16.7,9.9c-21.1,2.6-38.1,9.3-55.2,21.5
		c-55.8,39.9-61.8,121.6-12.5,170.3c13.1,12.9,31.2,23.4,48.5,28.6c17.5,5.2,47.7,4.8,64.6-1c36.8-12.7,67-45.3,75.5-81.5
		c3.2-13.7,3.2-38.3,0-52.1c-3.6-15.5-14.3-35.4-23.6-44.5l-8.1-7.7v14.3c0,11.5-0.6,14.7-3.2,15.7c-2.2,0.8-4.4-0.2-6.2-2.6
		c-4-5.4-3-41.9,1.4-44.5c1.6-1.2,12.3-1.8,23.8-1.6c20.9,0.6,20.9,0.6,20.9,5.6c0,4.8-0.6,5-12.5,5.6l-12.5,0.6l7.2,8.1
		c8.7,9.5,19.5,31.4,23.8,48.3c3.8,15.1,3.8,42.5,0,57.6c-11.1,43.5-44.5,78.1-87.4,90.6C169.2,1488.9,137,1489.1,120.9,1485.2z"/>
	<path class="st0" d="M179.4,1394.4c-1.2-1.4-6.8-14.9-12.3-30.2c-7.7-20.3-9.9-28-8.3-29.6c1.6-1.6,3.4-1.6,5.4-0.4
		c3.8,2.4,24.6,56.2,23.2,60C186.2,1397.5,181.8,1397.5,179.4,1394.4z"/>
	<path class="st0" d="M88.2,1393c-8.1-2-10.7-3.8-10.7-7.4c0-4.2,5-5.6,9.9-2.8c2.4,1.2,6.6,1.8,9.1,1.2c8.1-2.2,6.4-10.5-5-20.9
		c-11.7-11.1-16.5-18.5-14.9-22.8c1.8-4.6,34.2-4.8,36,0c1.6,4.4-2.8,6.8-13.3,6.8h-8.7l10.1,10.5c5.8,5.6,10.9,12.5,11.5,15.3
		c2,7.9-2.2,15.7-9.9,18.9c-3.8,1.6-7.2,3-7.4,2.8C94.6,1394.4,91.6,1393.8,88.2,1393z"/>
	<path class="st0" d="M129.9,1381.5c-14.7-33-14.7-34.4,1.6-34.4c8.9,0,9.5-0.4,9.5-5c0-4,1-5,5-5c3.8,0,5,1,5,4.6
		c0,2.4,1.8,5.6,4,7c4.2,2.6,3.4,8.3-1.2,8.3c-2,0-2.8,2.4-2.8,7.7c0,8.5-1.8,10.9-6.8,8.9c-2.2-0.8-3.2-3.8-3.2-8.9
		c0-7-0.6-7.7-5-7.7c-5.6,0-5.6-0.2,3.4,19.9c5.4,11.9,5.2,15.9-0.6,15.9C136.1,1392.8,133.5,1389.6,129.9,1381.5z"/>
	<path class="st0" d="M191.5,1389.8c-2-5,1.2-7,11.3-7c11.7,0,11.5,0.8,0.6-23.6c-8.1-17.5-8.5-22.1-2.2-22.1c3.8,0,6,3.6,14.9,25
		c5.8,13.9,10.1,26.2,9.5,27.8C224.1,1394,193.1,1394,191.5,1389.8z"/>
</g>
</svg>
